{"title":"The Door 2014 HDRIP x264 AC3 TiTAN","uid":11244306,"size":760939913,"categoryP":"video","categoryS":"movies","magnet":"?xt=urn:btih:eb7860f99d7fc2d05fa7e2c6c3330ece1bb2327c&amp;dn=The+Door+2014+HDRIP+x264+AC3+TiTAN&amp;tr=udp%3A%2F%2Ftracker.openbittorrent.com%3A80&amp;tr=udp%3A%2F%2Fopen.demonii.com%3A1337&amp;tr=udp%3A%2F%2Ftracker.coppersurfer.tk%3A6969&amp;tr=udp%3A%2F%2Fexodus.desync.com%3A6969","seeders":4,"leechers":0,"uploader":"xxxlavalxxx","files":-1,"time":1413713747,"description":"[IMG]http://i.imgur.com/Vmd4jfu.jpg[/IMG]\n\n &lt;a href=&quot;\nhttp://www.imdb.com/title/tt3765746/&quot; rel=&quot;nofollow&quot; target=&quot;_NEW&quot;&gt;\nhttp://www.imdb.com/title/tt3765746/&lt;/a&gt;\n\n\nDirector: Patrick McBrearty\nWriter: Patrick McBrearty\nStars: Winny Clarke, Liv Collins, Alys Crocker\nGenres: Horror\nCountry: Canada\nLanguage: English\n\n\nSource: OWN\n\nGeneral\n\nFormat                                   : Matroska\nFormat version                           : Version 2\nFile size                                : 726 MiB\nDuration                                 : 1h 23mn\nOverall bit rate mode                    : Variable\nOverall bit rate                         : 1 216 Kbps\nEncoded date                             : UTC 2014-10-19 00:33:50\n\nVideo\nID                                       : 1\nFormat                                   : AVC\nFormat/Info                              : Advanced Video Codec\nFormat profile                           : High@L4.1\nFormat settings, CABAC                   : Yes\nFormat settings, ReFrames                : 3 frames\nFormat settings, GOP                     : M=4, N=23\nCodec ID                                 : V_MPEG4/ISO/AVC\nDuration                                 : 1h 23mn\nBit rate mode                            : Variable\nBit rate                                 : 808 Kbps\nMaximum bit rate                         : 40.0 Mbps\nWidth                                    : 720 pixels\nHeight                                   : 304 pixels\nDisplay aspect ratio                     : 2.35:1\nFrame rate mode                          : Constant\nFrame rate                               : 23.976 fps\nColor space                              : YUV\nChroma subsampling                       : 4:2:0\nBit depth                                : 8 bits\nScan type                                : Progressive\nBits/(Pixel*Frame)                       : 0.154\nStream size                              : 482 MiB (66%)\nDefault                                  : Yes\nForced                                   : No\nColor primaries                          : BT.709\nTransfer characteristics                 : BT.709\nMatrix coefficients                      : BT.709\n\nAudio\nID                                       : 2\nFormat                                   : AC-3\nFormat/Info                              : Audio Coding 3\nMode extension                           : CM (complete main)\nFormat settings, Endianness              : Big\nCodec ID                                 : A_AC3\nDuration                                 : 1h 23mn\nBit rate mode                            : Constant\nBit rate                                 : 384 Kbps\nChannel(s)                               : 6 channels\nChannel positions                        : Front: L C R, Side: L R, LFE\nSampling rate                            : 48.0 KHz\nBit depth                                : 16 bits\nCompression mode                         : Lossy\nStream size                              : 229 MiB (32%)\nLanguage                                 : English\nDefault                                  : Yes\nForced                                   : No\n\n\nscreens\n &lt;a href=&quot;\nhttp://i.imgur.com/CV4wINX.jpg&quot; rel=&quot;nofollow&quot; target=&quot;_NEW&quot;&gt;\nhttp://i.imgur.com/CV4wINX.jpg&lt;/a&gt; &lt;a href=&quot;\nhttp://i.imgur.com/3Ki8WPe.jpg&quot; rel=&quot;nofollow&quot; target=&quot;_NEW&quot;&gt;\nhttp://i.imgur.com/3Ki8WPe.jpg&lt;/a&gt; &lt;a href=&quot;\nhttp://i.imgur.com/QvVZQiV.jpg&quot; rel=&quot;nofollow&quot; target=&quot;_NEW&quot;&gt;\nhttp://i.imgur.com/QvVZQiV.jpg&lt;/a&gt; &lt;a href=&quot;\nhttp://i.imgur.com/D4aBtyk.jpg&quot; rel=&quot;nofollow&quot; target=&quot;_NEW&quot;&gt;\nhttp://i.imgur.com/D4aBtyk.jpg&lt;/a&gt;","torrent":{"xt":"urn:btih:eb7860f99d7fc2d05fa7e2c6c3330ece1bb2327c","amp;dn":"The+Door+2014+HDRIP+x264+AC3+TiTAN","amp;tr":["udp%3A%2F%2Ftracker.openbittorrent.com%3A80","udp%3A%2F%2Fopen.demonii.com%3A1337","udp%3A%2F%2Ftracker.coppersurfer.tk%3A6969","udp%3A%2F%2Fexodus.desync.com%3A6969"],"infoHash":"eb7860f99d7fc2d05fa7e2c6c3330ece1bb2327c","infoHashBuffer":{"type":"Buffer","data":[235,120,96,249,157,127,194,208,95,167,226,198,195,51,14,206,27,178,50,124]},"announce":[],"urlList":[]}}